HIERARCHY
ROOT Hips
{
	OFFSET 0.00000 0.00000 0.00000
	CHANNELS 6 Xposition Yposition Zposition Zrotation Yrotation Xrotation 
	JOINT LHipJoint
	{
		OFFSET 0 0 0
		CHANNELS 3 Zrotation Yrotation Xrotation
		JOINT LeftUpLeg
		{
			OFFSET 1.62329 -1.80800 0.67318
			CHANNELS 3 Zrotation Yrotation Xrotation
			JOINT LeftLeg
			{
				OFFSET 2.57139 -7.06484 0.00000
				CHANNELS 3 Zrotation Yrotation Xrotation
				JOINT LeftFoot
				{
					OFFSET 2.52017 -6.92413 0.00000
					CHANNELS 3 Zrotation Yrotation Xrotation
					JOINT LeftToeBase
					{
						OFFSET 0.23295 -0.64001 2.10214
						CHANNELS 3 Zrotation Yrotation Xrotation
						End Site
						{
							OFFSET 0.00000 -0.00000 1.10139
						}
					}
				}
			}
		}
	}
	JOINT RHipJoint
	{
		OFFSET 0 0 0
		CHANNELS 3 Zrotation Yrotation Xrotation
		JOINT RightUpLeg
		{
			OFFSET -1.48061 -1.80800 0.67318
			CHANNELS 3 Zrotation Yrotation Xrotation
			JOINT RightLeg
			{
				OFFSET -2.63258 -7.23296 0.00000
				CHANNELS 3 Zrotation Yrotation Xrotation
				JOINT RightFoot
				{
					OFFSET -2.54779 -7.00000 0.00000
					CHANNELS 3 Zrotation Yrotation Xrotation
					JOINT RightToeBase
					{
						OFFSET -0.23067 -0.63376 2.12161
						CHANNELS 3 Zrotation Yrotation Xrotation
						End Site
						{
							OFFSET -0.00000 -0.00000 1.11000
						}
					}
				}
			}
		}
	}
	JOINT LowerBack
	{
		OFFSET 0 0 0
		CHANNELS 3 Zrotation Yrotation Xrotation
		JOINT Spine
		{
			OFFSET -0.02108 2.07573 -0.16981
			CHANNELS 3 Zrotation Yrotation Xrotation
			JOINT Spine1
			{
				OFFSET 0.05070 2.08439 -0.03141
				CHANNELS 3 Zrotation Yrotation Xrotation
				JOINT Neck
				{
					OFFSET 0 0 0
					CHANNELS 3 Zrotation Yrotation Xrotation
					JOINT Neck1
					{
						OFFSET -0.10731 1.60408 0.31370
						CHANNELS 3 Zrotation Yrotation Xrotation
						JOINT Head
						{
							OFFSET 0.08411 1.65679 -0.30822
							CHANNELS 3 Zrotation Yrotation Xrotation
							End Site
							{
								OFFSET 0.03911 1.69149 -0.14146
							}
						}
					}
				}
				JOINT LeftShoulder
				{
					OFFSET 0 0 0
					CHANNELS 3 Zrotation Yrotation Xrotation
					JOINT LeftArm
					{
						OFFSET 3.52315 0.73219 -0.54694
						CHANNELS 3 Zrotation Yrotation Xrotation
						JOINT LeftForeArm
						{
							OFFSET 5.32462 -0.00000 -0.00000
							CHANNELS 3 Zrotation Yrotation Xrotation
							JOINT LeftHand
							{
								OFFSET 3.48402 -0.00000 -0.00000
								CHANNELS 3 Zrotation Yrotation Xrotation
								JOINT LeftFingerBase
								{
									OFFSET 0 0 0
									CHANNELS 3 Zrotation Yrotation Xrotation
									JOINT LeftHandIndex1
									{
										OFFSET 0.57248 -0.00000 -0.00000
										CHANNELS 3 Zrotation Yrotation Xrotation
										End Site
										{
											OFFSET 0.46154 -0.00000 -0.00000
										}
									}
								}
								JOINT LThumb
								{
									OFFSET 0 0 0
									CHANNELS 3 Zrotation Yrotation Xrotation
									End Site
									{
										OFFSET 0.46859 -0.00000 0.46859
									}
								}
							}
						}
					}
				}
				JOINT RightShoulder
				{
					OFFSET 0 0 0
					CHANNELS 3 Zrotation Yrotation Xrotation
					JOINT RightArm
					{
						OFFSET -3.41766 0.93592 -0.10019
						CHANNELS 3 Zrotation Yrotation Xrotation
						JOINT RightForeArm
						{
							OFFSET -5.33589 -0.00000 -0.00000
							CHANNELS 3 Zrotation Yrotation Xrotation
							JOINT RightHand
							{
								OFFSET -3.64134 -0.00000 -0.00000
								CHANNELS 3 Zrotation Yrotation Xrotation
								JOINT RightFingerBase
								{
									OFFSET 0 0 0
									CHANNELS 3 Zrotation Yrotation Xrotation
									JOINT RightHandIndex1
									{
										OFFSET -0.73481 -0.00000 -0.00000
										CHANNELS 3 Zrotation Yrotation Xrotation
										End Site
										{
											OFFSET -0.59242 -0.00000 -0.00000
										}
									}
								}
								JOINT RThumb
								{
									OFFSET 0 0 0
									CHANNELS 3 Zrotation Yrotation Xrotation
									End Site
									{
										OFFSET -0.60147 -0.00000 0.60147
									}
								}
							}
						}
					}
				}
			}
		}
	}
}
MOTION
Frames: 13
Frame Time: .0083333
-1.9847 17.7609 -5.0459 -249.7000 91.6945 -244.1140 0.0000 0.0000 0.0000 -18.3219 -7.4152 -6.5123 1.7833 8.3993 23.9337 0.5471 -12.9860 -14.9675 0.0499 -1.4418 -3.9653 0.0000 0.0000 0.0000 8.8125 13.7840 -23.9620 -1.9684 -8.8000 25.1717 -0.2611 -3.5921 -11.6604 -0.0003 0.1188 -0.3264 -8.5606 -3.0138 4.2089 -1.6520 -4.3382 1.0293 3.2595 -2.1342 -0.7819 -17.5255 -14.5265 -8.8545 2.1423 -17.2779 25.4333 1.1355 -9.2135 11.5660 -0.0000 0.0000 0.0000 -67.9704 11.7838 -21.2563 27.4417 -38.5971 -9.7734 -0.0000 0.0000 -14.7027 26.0355 38.8007 17.0193 -7.1250 0.0000 -0.0000 -14.1328 71.3587 -8.9288 -0.0000 0.0000 0.0000 55.0087 5.3267 -47.3570 -18.3881 28.6513 -4.7339 0.0000 -0.0000 -49.1733 -34.1730 -3.2508 2.2047 7.1250 -0.0000 -0.0000 -6.1996 -33.8584 -1.7026
-1.9495 17.7595 -5.0267 -259.4930 91.7859 -253.6790 0.0000 0.0000 0.0000 -18.0630 -7.5335 -6.6433 1.7777 8.3868 23.8953 0.5601 -12.9176 -15.0606 0.0786 -1.8081 -4.9756 0.0000 0.0000 0.0000 8.9400 14.0595 -24.3180 -1.9103 -8.6766 24.7889 -0.2478 -3.5381 -11.3894 -0.0016 0.2582 -0.7095 -8.2975 -2.8037 4.1519 -1.9073 -4.0376 1.0662 2.8387 -1.9826 -0.7844 -16.8642 -14.8361 -8.6424 2.1064 -17.8841 25.3271 0.9531 -9.4411 11.4658 0.0000 -0.0000 0.0000 -66.8964 12.2625 -22.0812 27.0074 -38.1862 -9.5037 -0.0000 0.0000 -14.7297 26.7713 39.1208 17.6575 -7.1250 0.0000 -0.0000 -13.5422 71.9108 -8.7152 0.0000 -0.0000 0.0000 53.9572 5.3276 -48.6568 -18.6151 28.9376 -4.8432 0.0000 -0.0000 -49.2928 -34.5981 -2.9676 2.0453 7.1250 -0.0000 -0.0000 -6.5310 -33.5311 -1.8467
-1.9128 17.7634 -5.0059 -266.9340 91.8570 -260.9490 0.0000 0.0000 0.0000 -17.8641 -7.7808 -6.6371 1.7795 8.3907 23.9073 0.5666 -12.9112 -15.1179 0.0841 -1.8707 -5.1485 0.0000 0.0000 0.0000 9.0210 14.2986 -24.5635 -1.8481 -8.5423 24.3739 -0.2293 -3.4736 -11.0112 -0.0139 0.7624 -2.0952 -8.1935 -2.6492 4.1527 -2.0828 -3.8249 1.0826 2.5939 -1.8739 -0.8099 -16.5734 -15.0169 -8.4353 2.2878 -18.2883 25.2343 0.9279 -9.5860 11.4150 0.0000 0.0000 0.0000 -66.0495 12.8257 -23.0048 26.5409 -37.7378 -9.2167 -0.0000 0.0000 -14.6126 26.9928 39.3192 17.8878 -7.1250 0.0000 -0.0000 -13.5047 72.1743 -8.7685 0.0000 0.0000 0.0000 52.7237 5.4570 -49.6226 -18.9236 29.3236 -4.9934 0.0000 -0.0000 -49.5574 -34.9569 -2.8201 1.9700 7.1250 -0.0000 -0.0000 -6.8144 -33.3633 -1.9556
-1.8736 17.7615 -4.9831 -274.0590 92.0897 -268.0160 0.0000 0.0000 0.0000 -17.5266 -8.0111 -6.4935 1.7796 8.3911 23.9083 0.5632 -12.9771 -15.1116 0.0694 -1.7001 -4.6777 0.0000 0.0000 0.0000 9.3181 14.3989 -24.6701 -1.7871 -8.4077 23.9594 -0.2170 -3.3237 -10.6695 -0.0167 0.8338 -2.2915 -8.0506 -2.5925 4.2489 -2.0672 -3.7526 1.1072 2.5337 -1.8373 -0.8543 -16.8642 -15.0775 -8.2091 2.7796 -18.4957 25.0956 1.1172 -9.6576 11.4254 0.0000 0.0000 0.0000 -65.7638 13.4884 -24.1903 26.2423 -37.4469 -9.0346 -0.0000 0.0000 -14.6657 27.3417 39.4805 18.1985 -7.1250 0.0000 -0.0000 -13.2348 72.4486 -8.6706 0.0000 0.0000 0.0000 51.0963 5.8021 -50.1825 -19.1948 29.6600 -5.1269 0.0000 -0.0000 -49.8068 -35.0356 -2.5215 1.7668 7.1250 -0.0000 -0.0000 -6.8580 -33.0037 -2.0283
-1.8378 17.7628 -4.9635 -282.8500 92.1785 -276.7430 0.0000 0.0000 0.0000 -17.4127 -8.4772 -6.2503 1.7750 8.3808 23.8768 0.5835 -12.8629 -15.2539 0.0789 -1.8118 -4.9858 0.0000 0.0000 0.0000 9.3942 14.4514 -24.7650 -1.7298 -8.2791 23.5649 -0.2127 -3.3153 -10.5829 -0.0123 0.7168 -1.9698 -8.0105 -2.5857 4.3907 -2.1261 -3.7532 1.1333 2.4578 -1.8349 -0.9130 -16.9694 -15.1676 -8.0843 3.0698 -18.7077 24.9950 1.2042 -9.7354 11.4284 -0.0000 -0.0000 0.0000 -65.4969 14.1689 -25.2073 26.0615 -37.2694 -8.9249 -0.0000 0.0000 -15.0338 27.8259 39.6164 18.6012 -7.1250 0.0000 -0.0000 -12.7255 72.7433 -8.4153 -0.0000 -0.0000 0.0000 49.4412 6.2042 -50.6047 -19.4628 29.9896 -5.2602 0.0000 -0.0000 -49.8274 -34.8947 -2.2681 1.5811 7.1250 -0.0000 -0.0000 -6.7261 -32.6936 -2.0395
-1.8014 17.7724 -4.9496 -292.8170 92.0714 -286.4900 0.0000 0.0000 0.0000 -17.5622 -9.0741 -6.0840 1.7647 8.3576 23.8058 0.6062 -12.7152 -15.4052 0.0933 -1.9701 -5.4230 0.0000 0.0000 0.0000 9.1482 14.4019 -25.1297 -1.6862 -8.1794 23.2604 -0.2014 -3.3193 -10.3694 -0.0273 1.0673 -2.9340 -8.1012 -2.5408 4.3632 -2.3066 -3.6924 1.1172 2.3186 -1.8008 -0.9263 -16.8555 -15.3348 -7.9592 3.0876 -18.9934 24.9758 1.1547 -9.8569 11.4162 -0.0000 0.0000 0.0000 -65.0472 14.7694 -25.9275 25.8737 -37.0837 -8.8114 -0.0000 0.0000 -15.4491 28.3130 39.8068 19.0293 -7.1250 0.0000 -0.0000 -12.2835 73.0944 -8.2140 -0.0000 0.0000 0.0000 47.9211 6.4919 -51.0598 -19.8440 30.4539 -5.4521 0.0000 -0.0000 -49.7467 -34.8214 -2.2747 1.5814 7.1250 -0.0000 -0.0000 -6.6673 -32.7000 -2.0204
-1.7629 17.7735 -4.9290 -301.4860 92.1077 -295.0240 0.0000 0.0000 0.0000 -17.5982 -9.1993 -6.0098 1.7444 8.3122 23.6663 0.6002 -12.7824 -15.3756 0.0972 -2.0104 -5.5343 0.0000 0.0000 0.0000 9.0331 14.3890 -25.4393 -1.6613 -8.1218 23.0848 -0.1989 -3.1590 -10.2007 -0.0227 0.9717 -2.6710 -8.2003 -2.4812 4.3882 -2.3725 -3.6157 1.1447 2.3030 -1.7618 -0.9171 -16.9138 -15.5136 -7.8611 3.1024 -19.2553 24.9203 1.1275 -9.9808 11.4135 0.0000 -0.0000 0.0000 -64.8362 15.1933 -26.9007 25.6703 -36.8812 -8.6890 -0.0000 0.0000 -15.4275 28.4664 40.1353 19.2644 -7.1250 0.0000 -0.0000 -12.5404 73.4561 -8.4852 0.0000 -0.0000 0.0000 46.3027 6.8648 -51.5162 -20.2917 30.9921 -5.6808 0.0000 -0.0000 -49.5260 -34.9099 -2.3573 1.6442 7.1250 -0.0000 -0.0000 -6.7447 -32.8019 -2.0275
-1.7256 17.7627 -4.9026 -308.9670 92.3735 -302.4170 0.0000 0.0000 0.0000 -17.4603 -9.0786 -6.0315 1.7176 8.2513 23.4799 0.5866 -12.8860 -15.2899 0.0985 -2.0242 -5.5725 0.0000 0.0000 0.0000 9.1635 14.3318 -25.6985 -1.6454 -8.0847 22.9716 -0.2028 -3.1363 -10.2592 -0.0084 0.5919 -1.6265 -8.1761 -2.4647 4.5186 -2.3617 -3.6039 1.1734 2.3062 -1.7547 -0.9622 -17.0635 -15.6266 -7.6639 3.2318 -19.4506 24.6826 1.1773 -10.0733 11.3390 -0.0000 -0.0000 0.0000 -64.7898 15.6095 -27.8147 25.5305 -36.7414 -8.6053 -0.0000 0.0000 -15.3880 28.9856 40.1111 19.6422 -7.1250 0.0000 -0.0000 -11.7208 73.6206 -7.9681 -0.0000 -0.0000 0.0000 44.5954 7.2912 -51.8453 -20.6745 31.4464 -5.8792 0.0000 -0.0000 -49.0909 -34.7389 -2.1008 1.4562 7.1250 -0.0000 -0.0000 -6.5887 -32.4882 -2.0302
-1.6910 17.7590 -4.8766 -317.6410 92.6451 -310.9660 0.0000 0.0000 0.0000 -17.4136 -9.3948 -5.9349 1.6927 8.1943 23.3059 0.5686 -12.9111 -15.1356 0.0720 -1.7309 -4.7625 0.0000 0.0000 0.0000 9.3080 13.9909 -26.0557 -1.6297 -8.0480 22.8601 -0.1875 -3.4165 -10.1736 -0.0048 0.4490 -1.2337 -8.1860 -2.4910 4.6525 -2.4972 -3.6488 1.1931 2.1800 -1.7728 -1.0203 -16.8653 -15.6600 -7.4852 3.3650 -19.5956 24.4275 1.1975 -10.1158 11.2135 -0.0000 -0.0000 0.0000 -64.4414 16.0731 -28.4697 25.4389 -36.6492 -8.5505 -0.0000 0.0000 -15.7021 29.4026 40.1319 19.9622 -7.1250 0.0000 -0.0000 -11.1092 73.7849 -7.5889 -0.0000 -0.0000 0.0000 43.1250 7.7525 -52.0587 -21.0788 31.9202 -6.0915 0.0000 -0.0000 -48.5925 -34.3903 -1.6471 1.1271 7.1250 -0.0000 -0.0000 -6.2775 -31.9352 -2.0174
-1.6552 17.7622 -4.8481 -325.3440 92.8758 -318.5170 0.0000 0.0000 0.0000 -17.4433 -9.9523 -5.7412 1.6731 8.1492 23.1681 0.5677 -12.7866 -15.0810 0.0527 -1.4810 -4.0735 0.0000 0.0000 0.0000 9.3050 13.7573 -26.3728 -1.6072 -7.9950 22.6990 -0.1639 -3.6669 -9.8985 -0.0045 0.4353 -1.1961 -8.3082 -2.4839 4.6952 -2.6526 -3.6408 1.2472 2.0871 -1.7675 -0.9907 -16.6605 -15.7299 -7.4343 3.4953 -19.7743 24.3119 1.1940 -10.1701 11.1680 0.0000 0.0000 0.0000 -64.0636 16.4613 -28.9111 25.4254 -36.6357 -8.5425 -0.0000 0.0000 -16.0211 29.3089 40.4869 20.0262 -7.1250 0.0000 -0.0000 -11.7979 74.0907 -8.1400 0.0000 0.0000 0.0000 41.6462 8.1772 -52.1994 -21.5456 32.4596 -6.3402 0.0000 -0.0000 -48.0332 -34.1553 -1.7002 1.1532 7.1250 -0.0000 -0.0000 -6.0922 -31.9959 -1.9483
-1.6176 17.7626 -4.8210 -329.1240 93.2315 -322.1910 0.0000 0.0000 0.0000 -17.3056 -10.1419 -5.6876 1.6659 8.1325 23.1172 0.5752 -12.7613 -15.1402 0.0805 -1.8304 -5.0371 0.0000 0.0000 0.0000 9.3588 13.7080 -26.4955 -1.5699 -7.9060 22.4289 -0.1405 -3.8118 -9.5275 -0.0241 1.0025 -2.7558 -8.2301 -2.4298 4.7853 -2.7180 -3.5727 1.2609 1.9783 -1.7309 -1.0425 -16.6989 -15.8341 -7.3151 3.5701 -19.9548 24.3814 1.1978 -10.2500 11.2051 0.0000 0.0000 0.0000 -63.8745 16.8224 -29.2321 25.4417 -36.6521 -8.5522 -0.0000 0.0000 -15.9595 29.0393 40.6353 19.8787 -7.1250 0.0000 -0.0000 -12.4494 74.1350 -8.6047 0.0000 0.0000 0.0000 40.1089 8.4133 -52.2036 -22.1157 33.1075 -6.6489 0.0000 -0.0000 -47.5284 -34.2815 -1.9166 1.3060 7.1250 -0.0000 -0.0000 -6.2076 -32.2580 -1.9462
-1.5778 17.7624 -4.7968 -331.6540 93.6382 -324.6200 0.0000 0.0000 0.0000 -17.1130 -9.9790 -5.8001 1.6615 8.1222 23.0859 0.5788 -12.9748 -15.2528 0.1533 -2.5229 -6.9530 0.0000 0.0000 0.0000 9.2428 14.1008 -26.3589 -1.5193 -7.7834 22.0580 -0.1400 -4.0171 -9.7008 -0.0023 0.3080 -0.8462 -7.9825 -2.3816 4.8711 -2.8207 -3.5072 1.2445 1.7387 -1.6941 -1.1356 -16.7327 -15.9096 -6.9700 3.7304 -20.1516 24.3418 1.2505 -10.3353 11.1699 0.0000 0.0000 0.0000 -63.6237 17.1296 -29.5066 25.3620 -36.5717 -8.5047 -0.0000 0.0000 -15.8558 28.8342 40.3156 19.6055 -7.1250 0.0000 -0.0000 -12.2619 73.7598 -8.3755 0.0000 0.0000 0.0000 38.6723 8.6077 -52.1708 -22.6785 33.7353 -6.9589 0.0000 -0.0000 -47.1925 -34.1324 -2.1058 1.4268 7.1250 -0.0000 -0.0000 -6.0993 -32.4827 -1.8787
-1.5377 17.7596 -4.7708 -333.3440 94.1781 -326.2590 0.0000 0.0000 0.0000 -16.8135 -10.1541 -5.7335 1.6566 8.1108 23.0512 0.5637 -13.1991 -15.2015 0.1682 -2.6423 -7.2844 0.0000 0.0000 0.0000 9.6613 13.7724 -26.3826 -1.4695 -7.6606 21.6878 -0.0834 -4.6683 -9.0578 -0.0410 1.3071 -3.5941 -7.7183 -2.3929 4.9616 -2.8549 -3.5153 1.2950 1.5618 -1.6988 -1.1516 -16.7059 -15.9838 -6.7583 3.8164 -20.3135 24.2469 1.2683 -10.4045 11.1189 -0.0000 -0.0000 0.0000 -63.4422 17.3829 -29.7851 25.3168 -36.5260 -8.4777 -0.0000 0.0000 -15.8148 28.0223 40.4000 19.0311 -7.1250 0.0000 -0.0000 -13.6138 73.5497 -9.2457 -0.0000 -0.0000 0.0000 37.1961 9.0612 -52.3528 -23.3246 34.4419 -7.3211 0.0000 -0.0000 -46.7274 -33.7749 -2.3986 1.6033 7.1250 -0.0000 -0.0000 -5.8271 -32.8262 -1.7456
